<svg viewBox="0 0 21 19" version="1.1" xmlns="http://www.w3.org/2000/svg" xmlns:xlink="http://www.w3.org/1999/xlink">
    <g id="Page-1" stroke="none" stroke-width="1" fill="none" fill-rule="evenodd">
        <g id="bed" transform="translate(0.000000, 1.000000)" stroke="#222829" class="to-stroke">
            <path d="M20.48,10.035 L20.48,17.264 L19.103,17.264 L19.103,15.199 L1.89,15.199 L1.89,17.265 L0.513,17.265 L0.513,10.035 C0.510327785,9.3950128 0.763379571,8.78046604 1.2159228,8.3279228 C1.66846604,7.87537957 2.2830128,7.62232778 2.923,7.625 L18.07,7.625 C18.7099872,7.62232778 19.324534,7.87537957 19.7770772,8.3279228 C20.2296204,8.78046604 20.4826722,9.3950128 20.48,10.035 Z" id="bedbody" class="to-stroke"></path>
            <path d="M2.234,7.625 L2.234,2.461 C2.23132778,1.8210128 2.48437957,1.20646604 2.9369228,0.753922804 C3.38946604,0.301379571 4.0040128,0.0483277846 4.644,0.051 L16.344,0.051 C16.9839872,0.0483277846 17.598534,0.301379571 18.0510772,0.753922804 C18.5036204,1.20646604 18.7566722,1.8210128 18.754,2.461 L18.754,7.625" id="bedhead" class="to-stroke"></path>
            <g id="pillows" transform="translate(3.611000, 3.494000)" class="to-stroke">
                <path d="M-3.63478778e-17,3.1 L-3.63478778e-17,1.721 C-0.00569545816,1.26284015 0.173794166,0.821780101 0.497787134,0.497787134 C0.821780101,0.173794166 1.26284015,-0.00569545816 1.721,4.29615111e-17 L4.475,4.29615111e-17 C4.93384868,-0.00678414865 5.37595049,0.172224571 5.7008174,0.496338167 C6.02568431,0.820451763 6.2057189,1.26213681 6.2,1.721 L6.2,3.1" id="pillow_left" class="to-stroke"></path>
                <path d="M7.574,3.1 L7.574,1.721 C7.56830454,1.26284015 7.74779417,0.821780101 8.07178713,0.497787134 C8.3957801,0.173794166 8.83684015,-0.00569545816 9.295,1.58564568e-17 L12.049,1.58564568e-17 C12.5078487,-0.00678414865 12.9499505,0.172224571 13.2748174,0.496338167 C13.5996843,0.820451763 13.7797189,1.26213681 13.774,1.721 L13.774,3.1" id="pillow_right" class="to-stroke"></path>
            </g>
        </g>
    </g>
</svg>
