<svg viewBox="0 0 50 50" version="1.1" xmlns="http://www.w3.org/2000/svg" xmlns:xlink="http://www.w3.org/1999/xlink">
    <defs>
        <ellipse id="path-1" cx="3.10913706" cy="6.17597293" rx="3.10913706" ry="3.08798646"></ellipse>
        <ellipse id="path-2" cx="3.10913706" cy="6.17597293" rx="3.10913706" ry="3.08798646"></ellipse>
    </defs>
    <g id="Page-1" stroke="none" stroke-width="1" fill="none" fill-rule="evenodd">
        <g id="calendar">
            <path d="M0,6.21827411 L50,6.21827411 L50,50 L0,50 L0,6.21827411 Z M3.125,15.6000725 L3.125,46.8727339 L46.875,46.8727339 L46.875,15.6000725 L3.125,15.6000725 Z" id="calendar-body" fill="#000" class="to-fill"></path>
            <g id="accroche-left" transform="translate(9.263959, 0.000000)">
                <g id="bottom">
                    <use fill="#000" class="to-fill" fill-rule="evenodd" xlink:href="#path-1"></use>
                    <ellipse stroke="#FFFFFF" stroke-width="2" cx="3.10913706" cy="6.17597293" rx="4.10913706" ry="4.08798646"></ellipse>
                </g>
                <rect id="middle" fill="#000" class="to-fill" x="0" y="3.08798646" width="6.21827411" height="3.70558376"></rect>
                <ellipse id="top" fill="#000" class="to-fill" cx="3.10913706" cy="3.08798646" rx="3.10913706" ry="3.08798646"></ellipse>
            </g>
            <g id="accroche-right" transform="translate(34.263959, 0.000000)">
                <g id="bottom">
                    <use fill="#000" class="to-fill" fill-rule="evenodd" xlink:href="#path-2"></use>
                    <ellipse stroke="#FFFFFF" stroke-width="2" cx="3.10913706" cy="6.17597293" rx="4.10913706" ry="4.08798646"></ellipse>
                </g>
                <rect id="middle" fill="#000" class="to-fill" x="0" y="3.08798646" width="6.21827411" height="3.70558376"></rect>
                <ellipse id="top" fill="#000" class="to-fill" cx="3.10913706" cy="3.08798646" rx="3.10913706" ry="3.08798646"></ellipse>
            </g>
            <g id="squares" transform="translate(9.517766, 18.908629)" fill="#000" class="to-fill">
                <rect id="square-8" x="12.4365482" y="18.9086294" width="6.09137056" height="6.09137056"></rect>
                <rect id="square-7" x="0" y="18.9086294" width="6.09137056" height="6.09137056"></rect>
                <rect id="square-6" x="24.8730964" y="9.26395939" width="6.09137056" height="6.09137056"></rect>
                <rect id="square-5" x="12.4365482" y="9.26395939" width="6.09137056" height="6.09137056"></rect>
                <rect id="square-4" x="0" y="9.26395939" width="6.09137056" height="6.09137056"></rect>
                <rect id="square-3" x="24.8730964" y="0" width="6.09137056" height="6.09137056"></rect>
                <rect id="square-2" x="12.4365482" y="0" width="6.09137056" height="6.09137056"></rect>
                <rect id="square-1" x="0" y="0" width="6.09137056" height="6.09137056"></rect>
            </g>
        </g>
    </g>
</svg>
