<svg viewBox="0 0 96 96" version="1.1" xmlns="http://www.w3.org/2000/svg" xmlns:xlink="http://www.w3.org/1999/xlink">
    <g id="Page-1" stroke="none" stroke-width="1" fill="none" fill-rule="evenodd">
        <g id="calendar_2_" fill-rule="nonzero" class="to-fill">
            <path d="M87.2714657,9.22862922 L74.3982248,9.22862922 L74.3982248,3.19798665 C74.3982248,1.57826292 73.0852333,0.265217391 71.4655762,0.265217391 C69.8459191,0.265217391 68.5329277,1.57826292 68.5329277,3.19798665 L68.5329277,9.06352518 L50.6111866,9.06352518 L50.6111866,3.19798665 C50.6111866,2.15020908 50.052227,1.18202266 49.1448623,0.658133866 C48.2374977,0.134245068 47.1195783,0.134245068 46.2122137,0.658133866 C45.3048491,1.18202266 44.7458894,2.15020908 44.7458895,3.19798665 L44.7458895,9.06352518 L26.984901,9.06352518 L26.984901,3.19798665 C26.984901,2.15020909 26.4259413,1.18202269 25.5185767,0.658133896 C24.6112121,0.134245106 23.4932928,0.134245106 22.5859281,0.658133896 C21.6785635,1.18202269 21.1196038,2.15020909 21.1196039,3.19798665 L21.1196039,9.06352518 L8.24636293,9.06352518 C3.86246588,9.12654799 0.323889782,12.6652698 0.260869565,17.0493473 L0.260869565,87.2793952 C0.268045629,91.686867 3.83907257,95.2580409 8.24636293,95.2652173 L87.2758104,95.2652173 C91.6831007,95.2580409 95.2541277,91.686867 95.2613037,87.2793952 L95.2613037,17.0493473 C95.1829604,12.6968281 91.624485,9.21367465 87.2714657,9.22862922 Z M89.2261581,87.28374 C89.2471961,87.8084531 89.047978,88.3180787 88.6766687,88.689405 C88.3053594,89.0607313 87.7957571,89.2599585 87.271068,89.2389195 L8.24632644,89.2389195 C7.72163734,89.2599585 7.21203512,89.0607313 6.84072579,88.689405 C6.46941645,88.3180787 6.27019839,87.8084531 6.29123634,87.28374 L6.29123634,17.0493473 C6.27019839,16.5246342 6.46941645,16.0150086 6.84072579,15.6436823 C7.21203512,15.272356 7.72163734,15.0731288 8.24632644,15.0941677 L21.1151639,15.0941677 L21.1151639,20.9597063 C21.115164,22.57943 22.4281494,23.8924754 24.047799,23.8924754 C25.6674487,23.8924754 26.9804341,22.57943 26.9804342,20.9597063 L26.9804342,15.0941677 L44.7413415,15.0941677 L44.7413415,20.9597063 C44.7413415,22.57943 46.054327,23.8924755 47.6739767,23.8924755 C49.2936263,23.8924755 50.6066118,22.57943 50.6066118,20.9597063 L50.6066118,15.0941677 L68.3675192,15.0941677 L68.3675192,20.9597063 C68.3675192,22.57943 69.6805046,23.8924755 71.3001543,23.8924755 C72.919804,23.8924755 74.2327894,22.57943 74.2327894,20.9597063 L74.2327894,15.0941677 L87.1103162,15.0941677 C87.6350053,15.0731288 88.1446075,15.272356 88.5159168,15.6436823 C88.8872262,16.0150086 89.0864442,16.5246342 89.0654063,17.0493473 L89.0654063,87.2793952 L89.2261581,87.28374 Z" id="Path_83" ></path>
            <rect id="Rectangle_38" x="20.9695652" y="35.8130435" width="11.9043478" height="8.96956522" ></rect>
            <rect id="Rectangle_39" x="20.9695652" y="50.6521739" width="11.9043478" height="8.96956522" ></rect>
            <rect id="Rectangle_40" x="20.9695652" y="65.4913043" width="11.9043478" height="8.96956522" ></rect>
            <rect id="Rectangle_41" x="41.8434783" y="65.4913043" width="11.9043478" height="8.96956522" ></rect>
            <rect id="Rectangle_42" x="41.8434783" y="50.6521739" width="11.9043478" height="8.96956522" ></rect>
            <rect id="Rectangle_43" x="41.8434783" y="35.8130435" width="11.9043478" height="8.96956522" ></rect>
            <rect id="Rectangle_44" x="62.5521739" y="65.4913043" width="11.9043478" height="8.96956522" ></rect>
            <rect id="Rectangle_45" x="62.5521739" y="50.6521739" width="11.9043478" height="8.96956522" ></rect>
            <rect id="Rectangle_46" x="62.5521739" y="35.8130435" width="11.9043478" height="8.96956522" ></rect>
        </g>
    </g>
</svg>
