<svg viewBox="0 0 23 23" version="1.1" xmlns="http://www.w3.org/2000/svg" xmlns:xlink="http://www.w3.org/1999/xlink">
    <g id="Page-1" stroke="none" stroke-width="1" fill="none" fill-rule="evenodd" stroke-linejoin="round">
        <g id="m2" transform="translate(0.000000, -1.000000)" stroke-width="0.75" stroke="#000000">
            <g id="Group_159" transform="translate(0.000000, 0.700000)">
                <g id="Group_158">
                    <polyline id="Path_113" points="7.4 5.8 3.6 2 4.6 0.9 0.8 0.9 0.8 4.7 1.8 3.7 6.7 8.6"></polyline>
                    <polyline id="Path_114" points="15 16.9 19.6 21.4 18.5 22.5 22.3 22.5 22.3 18.6 21.3 19.7 16.1 14.5"></polyline>
                </g>
            </g>
            <g id="Group_161" transform="translate(0.000000, 0.700000)">
                <g id="Group_160">
                    <polyline id="Path_115" points="15.7 5.8 19.6 2 18.5 0.9 22.3 0.9 22.3 4.7 21.3 3.7 16.4 8.6"></polyline>
                    <polyline id="Path_116" points="8.1 16.9 3.6 21.4 4.6 22.5 0.8 22.5 0.8 18.6 1.8 19.7 7 14.5"></polyline>
                </g>
            </g>
        </g>
    </g>
</svg>
