<svg viewBox="0 0 21 28" version="1.1" xmlns="http://www.w3.org/2000/svg" xmlns:xlink="http://www.w3.org/1999/xlink">
    <g id="Page-1" stroke="none" stroke-width="1" fill="none" fill-rule="evenodd" stroke-linejoin="round">
        <g id="douche" transform="translate(0.000000, 1.000000)" stroke="#000000" stroke-width="0.75">
            <path d="M11.8,6.6 C11.8,3.92141896 9.62858104,1.75 6.95,1.75 C4.27141896,1.75 2.1,3.92141896 2.1,6.6 L2.1,26.3" id="Path_118"></path>
            <path d="M13.6,6.6 C13.6000001,4.24204706 12.3420472,2.06320866 10.3000001,0.884232171 C8.25795292,-0.294744319 5.74204708,-0.294744319 3.69999994,0.884232171 C1.65795281,2.06320866 0.39999993,4.24204706 0.4,6.6 L0.4,26.3" id="Path_119"></path>
            <polygon id="Path_120" points="19.8 12.8 5.6 12.8 5.6 11.5 11.8 6.6 13.6 6.6 19.8 11.5"></polygon>
            <path d="M7,14.1 L7,15.9" id="Line_115"></path>
            <path d="M9,15 L9,16.8" id="Line_116"></path>
            <path d="M10,14.1 L10,15" id="Line_117"></path>
            <path d="M12,15 L12,16.8" id="Line_118"></path>
            <path d="M14,19.4 L14,20.3" id="Line_119"></path>
            <path d="M16,17.6 L16,18.5" id="Line_120"></path>
            <path d="M14,14.1 L14,15" id="Line_121"></path>
            <path d="M12,17.6 L12,18.5" id="Line_122"></path>
            <path d="M12,20.3 L12,22.1" id="Line_123"></path>
            <path d="M16,14.1 L16,16.8" id="Line_124"></path>
            <path d="M18,14.1 L18,15.9" id="Line_125"></path>
            <path d="M18,17.6 L18,19.4" id="Line_126"></path>
            <path d="M10,16.8 L10,19.4" id="Line_127"></path>
            <path d="M9,17.6 L9,18.5" id="Line_128"></path>
            <path d="M9,19.4 L9,21.2" id="Line_129"></path>
            <path d="M7,17.6 L7,18.5" id="Line_130"></path>
            <path d="M14,16.8 L14,18.5" id="Line_131"></path>
            <path d="M6.1,10.7 L19.3,10.7" id="Line_132"></path>
        </g>
    </g>
</svg>
